<svg id="Layer_1" data-name="Layer 1" xmlns="http://www.w3.org/2000/svg" viewBox="0 0 224.14 224.14"><defs><style>.cls-1{fill:#131a42;}</style></defs><title>inman_seal</title><path class="cls-1" d="M112.07,188.3a76.23,76.23,0,1,1,76.23-76.23A76.23,76.23,0,0,1,112.07,188.3Zm0-150.47a74.23,74.23,0,1,0,74.23,74.23,74.23,74.23,0,0,0-74.23-74.23Z" transform="translate(0 0)"/><path class="cls-1" d="M187.3,112.07a75.24,75.24,0,0,1-150.47,0,75.24,75.24,0,0,0,150.47,0M112.07,34.84a77.23,77.23,0,1,0,77.23,77.23A77.23,77.23,0,0,0,112.07,34.84Zm0,150.47a73.23,73.23,0,1,1,73.23-73.23A73.23,73.23,0,0,1,112.07,185.31Z" transform="translate(0 0)"/><path class="cls-1" d="M20.8,125.33h-.2a.9.9,0,0,1-.34-.14,1.07,1.07,0,0,1-.42-.63.87.87,0,0,1,0-.37.9.9,0,0,1,.14-.34,1,1,0,0,1,.27-.27,1,1,0,0,1,.36-.15H21a.93.93,0,0,1,.35.15,1.08,1.08,0,0,1,.27.27,1,1,0,0,1,.14.34.93.93,0,0,1,0,.38.89.89,0,0,1-.14.34,1.05,1.05,0,0,1-.28.27,1,1,0,0,1-.36.15Z" transform="translate(0 0)"/><path class="cls-1" d="M20.81,124.32v.07h0m0-1.93a1.87,1.87,0,0,0-.4,0,2.06,2.06,0,0,0-.7.29,2,2,0,0,0-.54.53,1.92,1.92,0,0,0-.3.72,1.87,1.87,0,0,0,0,.78A2,2,0,0,0,19.7,126a1.89,1.89,0,0,0,.72.3,2,2,0,0,0,.39,0,1.85,1.85,0,0,0,.39,0,2,2,0,0,0,1.24-.82,1.87,1.87,0,0,0,.3-.72,1.91,1.91,0,0,0,0-.78,2.06,2.06,0,0,0-.83-1.24,1.92,1.92,0,0,0-.72-.3A2,2,0,0,0,20.81,122.46Z" transform="translate(0 0)"/><path class="cls-1" d="M203.36,125.33h-.2a.91.91,0,0,1-.34-.14,1,1,0,0,1-.42-.63.86.86,0,0,1,0-.36.9.9,0,0,1,.14-.34,1,1,0,0,1,.27-.26,1.06,1.06,0,0,1,.36-.15h.37a.93.93,0,0,1,.35.15,1,1,0,0,1,.42.62.91.91,0,0,1,0,.38.88.88,0,0,1-.14.34,1,1,0,0,1-.63.42Z" transform="translate(0 0)"/><path class="cls-1" d="M203.35,122.39a1.87,1.87,0,0,0-.4,0,2.06,2.06,0,0,0-.7.29,2,2,0,0,0-.54.53,1.92,1.92,0,0,0-.3.72,1.87,1.87,0,0,0,0,.78,2,2,0,0,0,.83,1.24,1.89,1.89,0,0,0,.72.3,2,2,0,0,0,.39,0,1.85,1.85,0,0,0,.39,0,2,2,0,0,0,1.24-.82,1.87,1.87,0,0,0,.3-.72,1.91,1.91,0,0,0,0-.78,2.06,2.06,0,0,0-.83-1.24,1.92,1.92,0,0,0-.72-.3,2,2,0,0,0-.38,0Z" transform="translate(0 0)"/><path class="cls-1" d="M112.07,223.14A111.07,111.07,0,1,1,223.14,112.07h0A111.2,111.2,0,0,1,112.07,223.14ZM112.07,3A109.07,109.07,0,1,0,189.2,35h0A108.35,108.35,0,0,0,112.07,3Z" transform="translate(0 0)"/><path class="cls-1" d="M222.14,112.07h0M2,112.07H2M112.07,222.14h0M112.07,0A112.07,112.07,0,1,0,224.14,112.07,112.07,112.07,0,0,0,112.07,0Zm0,220.14a108.07,108.07,0,1,1,76.42-31.65A108.07,108.07,0,0,1,112.07,220.14Z" transform="translate(0 0)"/><path class="cls-1" d="M27.28,144.51l.33-.09a2.3,2.3,0,0,0,.67-.36,1.94,1.94,0,0,1-.63.36A2.18,2.18,0,0,1,27.28,144.51Zm-6.49-2.75h1.05a1,1,0,0,0-.82.58Z" transform="translate(0 0)"/><path class="cls-1" d="M26.64,138.79a3.1,3.1,0,0,0-1,.18l-.33.14-.26.14.58,1.81a2,2,0,0,1,1.11-.36,1.55,1.55,0,0,1,.53.09,1.63,1.63,0,0,1,.78,2,1.3,1.3,0,0,1-.73.63,1.64,1.64,0,0,1-.55.1,1.49,1.49,0,0,1-.36,0,2.61,2.61,0,0,1-1-.56L24,141.81a4.85,4.85,0,0,0-1.12-.72,3.91,3.91,0,0,0-1.12-.32,4.33,4.33,0,0,0-1.12,0,5.79,5.79,0,0,0-1.15.28l2.31,6.54,1.62-.57-1.5-4.24a1.41,1.41,0,0,1,.56.15,3,3,0,0,1,.52.33l1.64,1.34a4.2,4.2,0,0,0,1.64.85,2.88,2.88,0,0,0,.69.08,3,3,0,0,0,2-.78,2.78,2.78,0,0,0,.68-1,3.31,3.31,0,0,0,.26-1.23,4.2,4.2,0,0,0-1-2.7,3.21,3.21,0,0,0-1-.78,3,3,0,0,0-1.16-.29Z" transform="translate(0 0)"/><path class="cls-1" d="M32.26,154.91a4.71,4.71,0,0,0,1.14-1.28,3.74,3.74,0,0,0-2.7-5.55,4.6,4.6,0,0,0-1.71.11,9,9,0,0,0-3.16,1.53A4.58,4.58,0,0,0,24.69,151a3.61,3.61,0,0,0-.48,1.6,3.69,3.69,0,0,0,.42,1.87,3.51,3.51,0,0,0,2.76,2.08,4.7,4.7,0,0,0,1.71-.1,8.46,8.46,0,0,0,1.66-.6A8.37,8.37,0,0,0,32.26,154.91Zm-3.64-.38a2.68,2.68,0,0,1-1.11.09,1.75,1.75,0,0,1-.74-.25,1.58,1.58,0,0,1-.56-.68,1.63,1.63,0,0,1-.18-.86,1.68,1.68,0,0,1,.25-.75,2.81,2.81,0,0,1,.76-.8,7.32,7.32,0,0,1,1.17-.7,7.46,7.46,0,0,1,1.27-.49,2.81,2.81,0,0,1,1.1-.1,1.67,1.67,0,0,1,.75.26,1.63,1.63,0,0,1,.56.68,1.58,1.58,0,0,1,.18.86,1.73,1.73,0,0,1-.26.74,2.67,2.67,0,0,1-.75.82,8,8,0,0,1-2.43,1.18Z" transform="translate(0 0)"/><path class="cls-1" d="M30.12,148a4.58,4.58,0,0,0-1.13.14,9,9,0,0,0-3.16,1.53A4.58,4.58,0,0,0,24.69,151a3.61,3.61,0,0,0-.48,1.6,3.69,3.69,0,0,0,.42,1.87,3.51,3.51,0,0,0,2.76,2.08,4.85,4.85,0,0,0,.59,0,4.67,4.67,0,0,0,1.12-.14,8.46,8.46,0,0,0,1.66-.6,8.37,8.37,0,0,0,1.5-.93,4.71,4.71,0,0,0,1.14-1.28,3.74,3.74,0,0,0-2.7-5.55,4.73,4.73,0,0,0-.58,0Zm-2.28,6.6h-.33a1.75,1.75,0,0,1-.74-.25,1.58,1.58,0,0,1-.56-.68,1.63,1.63,0,0,1-.18-.86,1.68,1.68,0,0,1,.25-.75,2.81,2.81,0,0,1,.76-.8,7.32,7.32,0,0,1,1.17-.7,7.46,7.46,0,0,1,1.27-.49,3.09,3.09,0,0,1,.81-.12h.29a1.67,1.67,0,0,1,.75.26,1.63,1.63,0,0,1,.56.68,1.58,1.58,0,0,1,.18.86,1.73,1.73,0,0,1-.26.74,2.67,2.67,0,0,1-.75.82,8,8,0,0,1-2.43,1.18,3,3,0,0,1-.78.11Z" transform="translate(0 0)"/><path class="cls-1" d="M35.37,160.06a1,1,0,0,0,.17-1.25h.1a3.23,3.23,0,0,0,1.19.24H37Z" transform="translate(0 0)"/><path class="cls-1" d="M34.65,156.71l-1.14.7,1.18,1.92-5.34,3.28,1,1.69,8-4.91-.9-1.47a1.89,1.89,0,0,1-.67.12,2.24,2.24,0,0,1-.82-.17,2.81,2.81,0,0,1-1.33-1.17Z" transform="translate(0 0)"/><path class="cls-1" d="M35.64,167a4.79,4.79,0,0,1,.89-.86,6.93,6.93,0,0,1,.6-.41,1,1,0,0,0-.13.64h-.24a2.59,2.59,0,0,0-1,.47Z" transform="translate(0 0)"/><path class="cls-1" d="M39.46,164a5.1,5.1,0,0,0-1.5.23,6.53,6.53,0,0,0-2,1.08,5.28,5.28,0,0,0-1.31,1.37,3.93,3.93,0,0,0-.57,1.47,3.4,3.4,0,0,0,.08,1.46,3.91,3.91,0,0,0,.66,1.33,4.08,4.08,0,0,0,1.07,1,3.64,3.64,0,0,0,1.24.5,3,3,0,0,0,.6.06,3.11,3.11,0,0,0,.69-.08,3.18,3.18,0,0,0,1.22-.59,3.42,3.42,0,0,0,.9-1,2.8,2.8,0,0,0,.28-2.33,3.79,3.79,0,0,0-.62-1.18,2.77,2.77,0,0,0-1.1-.91,2.52,2.52,0,0,0-1-.23H38a3.36,3.36,0,0,1,1.14-.42,2.92,2.92,0,0,1,.46,0,2.67,2.67,0,0,1,.62.07,2.85,2.85,0,0,1,1,.44,3.62,3.62,0,0,1,.82.79,3.39,3.39,0,0,1,.43.73,4.84,4.84,0,0,1,.24.7L44.3,168a3,3,0,0,0-.24-.82,4.73,4.73,0,0,0-.6-1,5.59,5.59,0,0,0-1.59-1.45A4.7,4.7,0,0,0,40,164a4.55,4.55,0,0,0-.53,0Zm-2,6.62h-.27a1.6,1.6,0,0,1-.57-.23,1.86,1.86,0,0,1-.48-.45,1.81,1.81,0,0,1-.29-.57,1.53,1.53,0,0,1-.06-.61,1.62,1.62,0,0,1,.18-.59,1.5,1.5,0,0,1,.43-.5,1.58,1.58,0,0,1,.6-.29,1.53,1.53,0,0,1,.34,0h.26a1.55,1.55,0,0,1,.57.23,1.94,1.94,0,0,1,.77,1,1.65,1.65,0,0,1,.07.61,1.4,1.4,0,0,1-.17.58,1.69,1.69,0,0,1-1,.79,1.51,1.51,0,0,1-.34,0Z" transform="translate(0 0)"/><rect class="cls-1" x="43.16" y="172.84" width="1.71" height="4.19" transform="translate(-107.03 76.32) rotate(-42.74)"/><polygon class="cls-1" points="43.22 172.81 41.97 173.97 44.81 177.04 46.06 175.89 43.22 172.81 43.22 172.81"/><path class="cls-1" d="M52.81,187.57l.6-1.46a1,1,0,0,0,1,1h.07l-1.24.85Zm-5.16-4.33.71-1.56a1,1,0,0,0,.86,1.12h.14l-1.3.82Zm7.85-2.51a1,1,0,0,0-1-1h0l1.07-.68.47.39Zm-4.31-5.28h0l-1,2.11Z" transform="translate(0 0)"/><polygon class="cls-1" points="50.83 173.84 46.42 183.52 48.02 184.86 54.5 180.78 51.6 187.87 53.18 189.19 61.94 183.16 60.37 181.85 54.4 186.09 57.21 179.19 55.62 177.87 49.35 181.81 52.45 175.2 50.83 173.84 50.83 173.84"/><polygon class="cls-1" points="60.13 192.74 64.61 185.81 64.63 185.82 60.15 192.75 60.13 192.74"/><polygon class="cls-1" points="64.31 184.43 58.75 193.04 60.45 194.14 66.01 185.52 64.31 184.43 64.31 184.43"/><path class="cls-1" d="M71.36,199l-.2-2a1,1,0,0,0,.73.59h.19a1,1,0,0,0,.84-.46l-1.07,2.12Zm-.82-8a1,1,0,0,0-.81-.88h-.18a1,1,0,0,0-.84.46l.85-1.68.83.42.17,1.78Z" transform="translate(0 0)"/><polygon class="cls-1" points="69.11 187.51 64.49 196.65 66.27 197.55 69.55 191.06 70.42 199.65 72.3 200.6 76.92 191.45 75.14 190.55 72.08 196.6 71.33 188.63 69.11 187.51 69.11 187.51"/><path class="cls-1" d="M84.16,203.92l-.49-2a1,1,0,0,0,.81.48h0a1,1,0,0,0,.91-.59l-.75,2.24Zm-2-7.84a1,1,0,0,0-.93-.76h0a1,1,0,0,0-.91.58l.6-1.78.88.3.44,1.82Z" transform="translate(0 0)"/><polygon class="cls-1" points="80.28 192.86 77.02 202.57 78.91 203.21 81.22 196.32 83.32 204.69 85.31 205.36 88.57 195.65 86.68 195.01 84.52 201.44 82.64 193.65 80.28 192.86 80.28 192.86"/><path class="cls-1" d="M91.3,205.77l.15-.76a1,1,0,0,0,.36.86Zm1-4.83a.85.85,0,0,1-.31,1.54Zm.65-3.26.51.1a1,1,0,0,0-.66.66Z" transform="translate(0 0)"/><polygon class="cls-1" points="92.12 196.5 90.13 206.56 96.42 207.81 96.79 205.96 92.45 205.1 92.91 202.78 96.84 203.56 97.19 201.81 93.26 201.03 93.71 198.74 98.05 199.6 98.42 197.75 92.12 196.5 92.12 196.5"/><path class="cls-1" d="M102,207.51l.66-8.22H103a1,1,0,0,0-.35.68l-.23,2.84a1,1,0,0,1-.14,1.71l-.24,2.94Zm3.2-3.15a1,1,0,0,0-.18-.28h.5l-.08.13a1,1,0,0,0-.12.48Zm2.19-1.46a2.5,2.5,0,0,0,.3-1,2.45,2.45,0,0,0-.27-1.37,1.93,1.93,0,0,1,.21.47,2.3,2.3,0,0,1,.09.88,2.06,2.06,0,0,1-.36,1Z" transform="translate(0 0)"/><path class="cls-1" d="M101.71,198.21l-.82,10.22,2,.16.32-3.93,1,.08,1.69,4.09,2.22.18-1.85-4.35a2.89,2.89,0,0,0,2.41-2.72,3.31,3.31,0,0,0-.13-1.26,2.87,2.87,0,0,0-.58-1,3.16,3.16,0,0,0-1-.75,3.54,3.54,0,0,0-1.33-.35l-4-.32Zm3.46,4.87H105l-1.61-.13.23-2.84,1.61.13a1.68,1.68,0,0,1,1.15.48,1.36,1.36,0,0,1,.33,1.07,1.33,1.33,0,0,1-.5,1,1.56,1.56,0,0,1-1,.3Z" transform="translate(0 0)"/><rect class="cls-1" x="116.15" y="203.66" width="4.19" height="1.71" transform="translate(-13.19 8.22) rotate(-3.77)"/><polygon class="cls-1" points="120.31 203.52 116.12 203.79 116.23 205.5 120.42 205.22 120.31 203.52 120.31 203.52"/><path class="cls-1" d="M131.66,205.66a3.94,3.94,0,0,1-.89-.4,4.13,4.13,0,0,1-1.19-1.11,5,5,0,0,1-.81-3.55,4.3,4.3,0,0,1,.35-1.1,4.36,4.36,0,0,0-.3,1,4.89,4.89,0,0,0,.08,1.94,4.7,4.7,0,0,0,.75,1.72,4.21,4.21,0,0,0,1.22,1.14A4.12,4.12,0,0,0,131.66,205.66Z" transform="translate(0 0)"/><path class="cls-1" d="M133.09,196.13a6,6,0,0,0-1.34.16,5.28,5.28,0,0,0-1.84.81,5,5,0,0,0-2.13,3.31,6,6,0,0,0,1,4.32,5.09,5.09,0,0,0,1.48,1.38,5,5,0,0,0,1.87.67,5.29,5.29,0,0,0,.8.06,5.64,5.64,0,0,0,1.26-.15A5.12,5.12,0,0,0,136,206a4.9,4.9,0,0,0,1.18-1.12,4.36,4.36,0,0,0,.67-1.3,4.59,4.59,0,0,0,.22-1.29l-1.94-.13a3.08,3.08,0,0,1-.15.78,2.75,2.75,0,0,1-.4.78,2.85,2.85,0,0,1-.71.67,3.13,3.13,0,0,1-1.08.45,3.28,3.28,0,0,1-.74.08,3.22,3.22,0,0,1-.48,0,3,3,0,0,1-1.13-.41,3.19,3.19,0,0,1-.93-.87,3.69,3.69,0,0,1-.59-1.36,3.87,3.87,0,0,1-.07-1.54,3.07,3.07,0,0,1,.46-1.2,3,3,0,0,1,.85-.84,3.28,3.28,0,0,1,1.07-.46,3.65,3.65,0,0,1,.81-.1h.36a2.85,2.85,0,0,1,.92.28,2.31,2.31,0,0,1,.68.53,3,3,0,0,1,.45.65l1.7-1a4.77,4.77,0,0,0-.78-1.08,4.22,4.22,0,0,0-1.15-.86,4.73,4.73,0,0,0-2.08-.48Z" transform="translate(0 0)"/><path class="cls-1" d="M143.12,202a1,1,0,0,0,.82.56l-.54.2Z" transform="translate(0 0)"/><polygon class="cls-1" points="141.14 193.76 139.27 194.45 142.81 204.07 148.97 201.81 148.31 200.02 144.02 201.59 141.14 193.76 141.14 193.76"/><path class="cls-1" d="M152.9,197.79a4.33,4.33,0,0,1-1.29-.73,4.48,4.48,0,0,1-1.15-1.46,4.54,4.54,0,0,1-.53-1.79,4.4,4.4,0,0,1,.07-1.15,4.27,4.27,0,0,0,0,1,5.28,5.28,0,0,0,1.75,3.38A4.21,4.21,0,0,0,152.9,197.79Zm5.52-2.87a4.17,4.17,0,0,0,.12-1.37,5.26,5.26,0,0,0-1.75-3.38,4.31,4.31,0,0,0-.86-.55,4.44,4.44,0,0,1,1,.6,4.58,4.58,0,0,1,1.15,1.47,4.51,4.51,0,0,1,.53,1.78,4.29,4.29,0,0,1-.2,1.46Z" transform="translate(0 0)"/><path class="cls-1" d="M154.31,188.27a5.24,5.24,0,0,0-.58,0,5.55,5.55,0,0,0-1.95.59,5.48,5.48,0,0,0-1.6,1.25,5,5,0,0,0-1,1.71,5.2,5.2,0,0,0-.25,2,6,6,0,0,0,2.05,4,5.23,5.23,0,0,0,1.8,1,5,5,0,0,0,1.41.2,5.21,5.21,0,0,0,.57,0,5.59,5.59,0,0,0,3.55-1.84,5,5,0,0,0,1-1.72,5.21,5.21,0,0,0,.26-2,5.47,5.47,0,0,0-.64-2.18,5.53,5.53,0,0,0-1.41-1.78,5.2,5.2,0,0,0-1.8-1,4.94,4.94,0,0,0-1.4-.2Zm0,8.77a3.09,3.09,0,0,1-.82-.11,3,3,0,0,1-1.14-.61,4.29,4.29,0,0,1-1.39-2.68,3,3,0,0,1,.78-2.31,3.36,3.36,0,0,1,.94-.72,3.42,3.42,0,0,1,1.14-.35h.4a3,3,0,0,1,1.94.72,4.28,4.28,0,0,1,1.39,2.68,3,3,0,0,1-.79,2.31,3.38,3.38,0,0,1-.94.72,3.32,3.32,0,0,1-1.13.35h-.38Z" transform="translate(0 0)"/><path class="cls-1" d="M165.89,191.17h-.31a2.55,2.55,0,0,1-1-.37,3.14,3.14,0,0,1-.86-.81,2.94,2.94,0,0,0,1.81,1.15,2.73,2.73,0,0,0,.44,0h-.08Zm2.94-1.91a2.68,2.68,0,0,0,.18-.6,2.94,2.94,0,0,0-.49-2.09,3.14,3.14,0,0,1,.49,1.08,2.55,2.55,0,0,1,0,1.06,2.31,2.31,0,0,1-.18.54Z" transform="translate(0 0)"/><path class="cls-1" d="M165.44,180.5l-1.63,1.16,3.75,5.28a2.08,2.08,0,0,1,.46,1.55,1.93,1.93,0,0,1-.87,1.25,2,2,0,0,1-1.18.42h-.28a2.08,2.08,0,0,1-1.31-.95l-3.75-5.28L159,185.06l3.83,5.4a4.17,4.17,0,0,0,1.22,1.17,3.54,3.54,0,0,0,1.39.5h.44a3.52,3.52,0,0,0,1-.15,5,5,0,0,0,2.52-1.79,3.43,3.43,0,0,0,.59-1.33,3.55,3.55,0,0,0,0-1.48,4.19,4.19,0,0,0-.71-1.53l-3.83-5.4Z" transform="translate(0 0)"/><path class="cls-1" d="M174.73,183.8a1,1,0,0,0,.65.24h.19l-.34.32Zm3.86-4a3.93,3.93,0,0,0-.28-1.51,5.39,5.39,0,0,0-2.49-2.67,3.91,3.91,0,0,0-1.58-.39h.09a3.73,3.73,0,0,1,1.56.37,5.35,5.35,0,0,1,2.45,2.63,3.51,3.51,0,0,1,.25,1.48Zm-9-1.54L170,178a1,1,0,0,0,.17.86Z" transform="translate(0 0)"/><path class="cls-1" d="M174.34,174.27a4.53,4.53,0,0,0-1.74.36,5.71,5.71,0,0,0-1.72,1.13l-2.69,2.5,7,7.5,2.67-2.49a5.71,5.71,0,0,0,1.24-1.63,4.65,4.65,0,0,0,.49-1.82,4.52,4.52,0,0,0-.32-1.9,6.33,6.33,0,0,0-3-3.17,4.63,4.63,0,0,0-1.87-.46Zm1,8.77-4.46-4.79,1.17-1.09a3.52,3.52,0,0,1,1-.66,2.66,2.66,0,0,1,1.05-.22h.07a2.91,2.91,0,0,1,1.18.3,4.41,4.41,0,0,1,2,2.13,2.88,2.88,0,0,1,.21,1.2,2.64,2.64,0,0,1-.31,1.11,3.6,3.6,0,0,1-.73,1l-1.14,1Z" transform="translate(0 0)"/><path class="cls-1" d="M189.52,166.87a1,1,0,0,0,.72-.94l.59.92-.18.27Zm-8.22-.77.55-.79,1.41.31a1,1,0,0,0-.56,1.46Zm4.8-6.88.6-.86,1.48,1a1,1,0,0,0-1.34.94Z" transform="translate(0 0)"/><polygon class="cls-1" points="186.45 156.98 184.89 159.21 189.24 165.91 181.41 164.2 179.9 166.35 188.3 172.22 189.39 170.66 183.55 166.58 191.08 168.24 192.03 166.88 187.83 160.35 193.72 164.46 194.85 162.85 186.45 156.98 186.45 156.98"/><path class="cls-1" d="M196.13,156.67a1,1,0,0,0,1-.15l-.26.51Z" transform="translate(0 0)"/><polygon class="cls-1" points="198.56 151.67 196.49 155.74 189.05 151.97 188.15 153.75 197.29 158.38 200.26 152.53 198.56 151.67 198.56 151.67"/><path class="cls-1" d="M198.7,144.13a1,1,0,0,0-.8-.4h-.43a1,1,0,0,0,.36-.94l.12.16a1,1,0,0,0,.8.4H199l.22-.05a1,1,0,0,0-.39.93Zm4.44-1.71Z" transform="translate(0 0)"/><polygon class="cls-1" points="195.09 137.52 194.29 139.7 196.85 143.02 192.77 143.87 191.94 146.13 197.9 144.73 201.56 149.66 202.37 147.46 199.81 144.15 203.89 143.29 204.72 141.02 198.76 142.43 195.09 137.52 195.09 137.52"/><path class="cls-1" d="M15.67,107l.09-.93,1.31-.4a1,1,0,0,0,.12,1.41l.09.07Zm7.48-3.32a1,1,0,0,0,.16-1.1l.91.49v.3ZM16.49,98.8l.1-1,1.68.17a1,1,0,0,0-.64,1.44Z" transform="translate(0 0)"/><polygon class="cls-1" points="15.7 96.7 15.43 99.37 22.41 103.05 14.83 105.35 14.58 107.93 24.64 108.93 24.83 107.06 17.83 106.36 25.12 104.16 25.28 102.53 18.51 98.93 25.57 99.63 25.76 97.7 15.7 96.7 15.7 96.7"/><path class="cls-1" d="M22.87,92.92a4.83,4.83,0,0,1-1.22-.17A4.47,4.47,0,0,1,20,92l-.21-.17.13.1a4.79,4.79,0,0,0,1.73.82,5.24,5.24,0,0,0,1.31.18,4.1,4.1,0,0,0,.6,0l.44-.09a4.63,4.63,0,0,1-.52.12,3.67,3.67,0,0,1-.6,0Zm2.94-7.16-.33-.29a4.79,4.79,0,0,0-1.73-.82,5.27,5.27,0,0,0-1.31-.18,4.1,4.1,0,0,0-.6,0h.1a3.86,3.86,0,0,1,.6,0,4.91,4.91,0,0,1,1.23.17,4.43,4.43,0,0,1,1.65.79A4.61,4.61,0,0,1,25.81,85.76Z" transform="translate(0 0)"/><path class="cls-1" d="M22.53,83.45a4.81,4.81,0,0,0-.75.06,5.14,5.14,0,0,0-1.9.68,4.92,4.92,0,0,0-1.43,1.34,5.48,5.48,0,0,0-.85,1.82,5.42,5.42,0,0,0-.15,2,4.94,4.94,0,0,0,.6,1.87,5.14,5.14,0,0,0,1.32,1.52,5.44,5.44,0,0,0,2,1,5.83,5.83,0,0,0,1.48.2,4.73,4.73,0,0,0,.76-.06,5.11,5.11,0,0,0,1.89-.69A4.91,4.91,0,0,0,27,91.83,5.53,5.53,0,0,0,28,88a4.92,4.92,0,0,0-.59-1.87A5.15,5.15,0,0,0,26,84.62a5.4,5.4,0,0,0-2-1,5.89,5.89,0,0,0-1.49-.2ZM23,91.89a4.23,4.23,0,0,1-1.06-.15,3.78,3.78,0,0,1-1.37-.64A3.61,3.61,0,0,1,19.34,89a3.32,3.32,0,0,1,.09-1.16,3.39,3.39,0,0,1,.49-1.07A3,3,0,0,1,22,85.51a3.07,3.07,0,0,1,.45,0,4.22,4.22,0,0,1,1.06.15,3.78,3.78,0,0,1,1.38.64A3,3,0,0,1,26,88.37a3.37,3.37,0,0,1,0,1.17,3.31,3.31,0,0,1-.49,1.06,3,3,0,0,1-2,1.26,3.07,3.07,0,0,1-.45,0Z" transform="translate(0 0)"/><path class="cls-1" d="M24.25,79.15h-.09a2.08,2.08,0,0,0,.69-.12h0A1.5,1.5,0,0,1,24.25,79.15Zm3.59-3.35a2,2,0,0,1,.31-.15,1.76,1.76,0,0,1,.62-.11,1.84,1.84,0,0,1,.68.13h0a2,2,0,0,0-.69-.12,2.11,2.11,0,0,0-.8.16Z" transform="translate(0 0)"/><path class="cls-1" d="M24.74,73h-.36a2.91,2.91,0,0,0-1,.3,3.43,3.43,0,0,0-1,.76,4.36,4.36,0,0,0-.82,1.35,3.82,3.82,0,0,0-.28,1.35,3.63,3.63,0,0,0,.2,1.3,3.16,3.16,0,0,0,.65,1.08,2.83,2.83,0,0,0,1,.73,2.92,2.92,0,0,0,1.1.23,2.48,2.48,0,0,0,.93-.18,3.57,3.57,0,0,0,1.64-1.42l.79-1.2a1.68,1.68,0,0,1,.75-.68,1.11,1.11,0,0,1,.42-.09,1.08,1.08,0,0,1,.41.08,1.11,1.11,0,0,1,.67.72,1.86,1.86,0,0,1-.13,1.26,2.55,2.55,0,0,1-.5.81,2,2,0,0,1-.64.46,1.9,1.9,0,0,1-.72.16h-.06a2.18,2.18,0,0,1-.66-.1l-.24,1.88a3.43,3.43,0,0,0,1,.13h.19a3.2,3.2,0,0,0,1.23-.31,3.92,3.92,0,0,0,1.15-.85,4.67,4.67,0,0,0,.92-1.5,4.19,4.19,0,0,0,.33-1.55,3.6,3.6,0,0,0-.23-1.32,3,3,0,0,0-.66-1,2.9,2.9,0,0,0-1-.66,2.82,2.82,0,0,0-1-.21h0a2.79,2.79,0,0,0-1,.17,3.33,3.33,0,0,0-1,.57,4.14,4.14,0,0,0-.84,1l-.78,1.21a1.46,1.46,0,0,1-.7.61,1.05,1.05,0,0,1-.77,0,1.07,1.07,0,0,1-.41-.29,1.31,1.31,0,0,1-.26-.45,1.6,1.6,0,0,1-.08-.57,1.88,1.88,0,0,1,.14-.64,2.11,2.11,0,0,1,.44-.71,1.72,1.72,0,0,1,.54-.38,1.49,1.49,0,0,1,.55-.12h.06a2.31,2.31,0,0,1,.43,0l.16-1.84a3.2,3.2,0,0,0-.59-.05Z" transform="translate(0 0)"/><path class="cls-1" d="M27.53,65.67a1,1,0,0,0,.41.79,1,1,0,0,0-.89.08Z" transform="translate(0 0)"/><polygon class="cls-1" points="28.41 61.95 24.42 69.31 26.06 70.2 27.59 67.39 34.83 71.33 35.78 69.59 28.53 65.65 30.06 62.84 28.41 61.95 28.41 61.95"/><rect class="cls-1" x="40.2" y="47.78" width="2" height="10.12" transform="translate(-25.76 50.53) rotate(-50.08)"/><polygon class="cls-1" points="37.96 48.83 36.68 50.36 44.44 56.85 45.72 55.32 37.96 48.83 37.96 48.83"/><path class="cls-1" d="M50.51,46.51A1,1,0,0,0,51.23,45l1.52,1.56-.37.36Zm-8.18-1.1.65-.63,1.42.34h0a1,1,0,0,0-.87,1.5Z" transform="translate(0 0)"/><polygon class="cls-1" points="47.09 39.36 45.68 40.74 50.36 45.52 42.67 43.68 40.91 45.39 47.98 52.63 49.39 51.26 44.38 46.12 52.68 48.04 54.16 46.6 47.09 39.36 47.09 39.36"/><path class="cls-1" d="M60.09,38.67A1,1,0,0,0,61,37.29L62.3,39l-.42.31Zm-8-2.21.73-.54,1.36.53h-.15a1,1,0,0,0-.93,1.38Z" transform="translate(0 0)"/><polygon class="cls-1" points="57.69 31.12 56.11 32.29 60.08 37.67 52.72 34.79 50.75 36.25 56.76 44.39 58.34 43.22 54.08 37.44 62.04 40.48 63.7 39.26 57.69 31.12 57.69 31.12"/><path class="cls-1" d="M66.16,34.5a4.63,4.63,0,0,1-.47-.32A4.88,4.88,0,0,1,64,31v-.11a5.23,5.23,0,0,0,1.79,3.32A4.66,4.66,0,0,0,66.16,34.5ZM72.49,31v-.43a5.23,5.23,0,0,0-1.79-3.32l-.11-.09.2.15a4.45,4.45,0,0,1,1.16,1.42A4.18,4.18,0,0,1,72.49,31Z" transform="translate(0 0)"/><path class="cls-1" d="M68.29,25.46a5.16,5.16,0,0,0-.66,0,5.49,5.49,0,0,0-1.91.62,5.42,5.42,0,0,0-1.56,1.26,4.91,4.91,0,0,0-1,1.71,5.13,5.13,0,0,0-.21,2,5.87,5.87,0,0,0,2.13,4,5.14,5.14,0,0,0,1.79.91,4.88,4.88,0,0,0,1.31.18,5.14,5.14,0,0,0,.65,0,5.42,5.42,0,0,0,1.91-.62,5.49,5.49,0,0,0,1.57-1.26,4.93,4.93,0,0,0,1-1.71,5.14,5.14,0,0,0,.22-2,5.36,5.36,0,0,0-.67-2.14,5.43,5.43,0,0,0-1.42-1.74,5.12,5.12,0,0,0-1.79-.92,4.85,4.85,0,0,0-1.3-.18Zm0,8.65a3.08,3.08,0,0,1-.76-.1,3,3,0,0,1-1.13-.58A4.24,4.24,0,0,1,65,30.82a3,3,0,0,1,.73-2.29,3.3,3.3,0,0,1,.91-.73,3.36,3.36,0,0,1,1.12-.37,2.94,2.94,0,0,1,2.33.64,4.24,4.24,0,0,1,1.42,2.62,3,3,0,0,1-.74,2.3,3.36,3.36,0,0,1-.92.73,3.31,3.31,0,0,1-1.11.36,3,3,0,0,1-.43,0Z" transform="translate(0 0)"/><path class="cls-1" d="M79.73,29a1,1,0,0,0,1.19-.35v.82l-.59.23Zm-5.09-5.83h0l.39.46Z" transform="translate(0 0)"/><polygon class="cls-1" points="81.84 19.31 79.89 20.06 80.1 28.02 74.96 21.94 72.94 22.7 80.04 30.83 81.93 30.11 81.84 19.31 81.84 19.31"/><path class="cls-1" d="M87.54,24.11a1,1,0,0,0,.53.54H88a1,1,0,0,0-.6.43Zm5.35-.24a1,1,0,0,0-.64-.23H92a.88.88,0,0,0,.16-.88Zm-4.68-5.24.88-.22.26.38a1,1,0,0,0-1.19.21Z" transform="translate(0 0)"/><path class="cls-1" d="M89.51,17.27l-2.21.55L86,28.58l2-.51.26-2.45,4-1,1.38,2,2.08-.52-6.19-8.88Zm-1,6.46.43-4L91.17,23l-2.71.68Z" transform="translate(0 0)"/><path class="cls-1" d="M99.35,17.23a1,1,0,0,0-.59-.67l1-.13a1.06,1.06,0,0,0-.41.8Z" transform="translate(0 0)"/><polygon class="cls-1" points="103.28 14.95 94.97 16.06 95.22 17.91 98.39 17.49 99.47 25.67 101.44 25.4 100.35 17.23 103.52 16.81 103.28 14.95 103.28 14.95"/><rect class="cls-1" x="106.99" y="14.73" width="2" height="10.12" transform="translate(-0.76 4.73) rotate(-2.5)"/><polygon class="cls-1" points="108.76 14.7 106.77 14.79 107.21 24.9 109.2 24.81 108.76 14.7 108.76 14.7"/><path class="cls-1" d="M116.19,23.86l-.28-.88a1,1,0,0,0,.66.3h0a1,1,0,0,0,.52-.14l-.32.75ZM113.6,15.6h0l.17.57Z" transform="translate(0 0)"/><polygon class="cls-1" points="112.21 14.54 115.44 24.83 117.46 24.93 121.71 15.01 119.63 14.9 116.62 22.29 114.36 14.64 112.21 14.54 112.21 14.54"/><path class="cls-1" d="M124.81,24.66l.1-.6a1,1,0,0,0,.34.68Zm.78-4.64a1,1,0,0,0,.38.7,1,1,0,0,0-.59.54Zm.56-3.37.44.08a.94.94,0,0,0-.54.52Z" transform="translate(0 0)"/><polygon class="cls-1" points="125.34 15.5 123.66 25.48 129.91 26.53 130.22 24.7 125.91 23.98 126.3 21.67 130.2 22.32 130.49 20.59 126.59 19.94 126.97 17.66 131.28 18.38 131.58 16.55 125.34 15.5 125.34 15.5"/><path class="cls-1" d="M143.42,21.65a1,1,0,0,0-.23-.86l.94.33A1,1,0,0,0,143.42,21.65Z" transform="translate(0 0)"/><polygon class="cls-1" points="140.03 18.63 139.42 20.4 142.44 21.44 139.74 29.24 141.61 29.89 144.31 22.09 147.33 23.14 147.94 21.38 140.03 18.63 140.03 18.63"/><path class="cls-1" d="M148.31,31.5l.26-.55a1,1,0,0,0,.14.74Zm2-4.24a1,1,0,0,0,.17.78,1,1,0,0,0-.71.36Zm1.47-3.08.41.19-.23,0a1,1,0,0,0-.43.3Z" transform="translate(0 0)"/><polygon class="cls-1" points="151.34 22.84 146.98 31.97 152.69 34.7 153.49 33.03 149.55 31.15 150.56 29.04 154.13 30.74 154.89 29.16 151.32 27.45 152.32 25.37 156.26 27.25 157.06 25.58 151.34 22.84 151.34 22.84"/><path class="cls-1" d="M157.81,35.39a4,4,0,0,1,0-1.6,4.93,4.93,0,0,1,1.94-3l.34-.21-.25.16a4.84,4.84,0,0,0-1.31,1.4,4.62,4.62,0,0,0-.69,1.72,4.14,4.14,0,0,0,0,1.63Z" transform="translate(0 0)"/><path class="cls-1" d="M162,29a5,5,0,0,0-2.85.89,5.93,5.93,0,0,0-2.36,3.68,5,5,0,0,0,.05,2,4.93,4.93,0,0,0,.82,1.78,5.39,5.39,0,0,0,1.48,1.39,5,5,0,0,0,1.75.74,5.21,5.21,0,0,0,1,.1,4.45,4.45,0,0,0,2-.48,4.6,4.6,0,0,0,1.06-.74l-1.25-1.46a3,3,0,0,1-.65.44,2.68,2.68,0,0,1-.83.26h-.37a3,3,0,0,1-1.66-.51,3.18,3.18,0,0,1-.87-.82,3,3,0,0,1-.5-1.08,3.14,3.14,0,0,1,0-1.25,3.63,3.63,0,0,1,.55-1.35,3.84,3.84,0,0,1,1-1.12A2.92,2.92,0,0,1,162.1,31a3,3,0,0,1,.62.07,3.38,3.38,0,0,1,1.92,1.2,2.78,2.78,0,0,1,.44.84,2.28,2.28,0,0,1,.1.84,3,3,0,0,1-.15.77l1.88.51a4.73,4.73,0,0,0,.23-1.29,4.17,4.17,0,0,0-.19-1.4,4.45,4.45,0,0,0-.74-1.39,5.39,5.39,0,0,0-1.4-1.24,5.22,5.22,0,0,0-1.84-.74,5.16,5.16,0,0,0-1-.09Z" transform="translate(0 0)"/><path class="cls-1" d="M173.84,44.25a1,1,0,0,0,0-1,1,1,0,0,0,.32,0h.08a1,1,0,0,0,.55-.22ZM169.92,39a1,1,0,0,0,0,.9,1,1,0,0,0-.32,0h-.08a1,1,0,0,0-.5.18Z" transform="translate(0 0)"/><polygon class="cls-1" points="171.95 35.11 165.4 42.82 166.9 44.09 169.61 40.9 172.97 43.75 170.26 46.95 171.77 48.23 178.32 40.52 176.81 39.24 174.18 42.34 170.81 39.48 173.45 36.38 171.95 35.11 171.95 35.11"/><path class="cls-1" d="M179.72,55.25l.51-1.85a1,1,0,0,0,1.46.78l-1.62,1.45Zm2.17-7.89a1,1,0,0,0-1.46-1l1.26-1.13.6.67Z" transform="translate(0 0)"/><polygon class="cls-1" points="181.77 43.87 174.23 50.62 175.54 52.09 180.89 47.3 178.61 55.51 179.99 57.05 187.53 50.3 186.21 48.83 181.23 53.3 183.4 45.7 181.77 43.87 181.77 43.87"/><path class="cls-1" d="M189,65l.46-.06a5.21,5.21,0,0,0,3.13-2.1l.09-.14-.14.23a4.89,4.89,0,0,1-3,2A4.71,4.71,0,0,1,189,65Zm-4-6a4.46,4.46,0,0,1,3.27-2.49h.11a5.23,5.23,0,0,0-3.13,2.1,4.24,4.24,0,0,0-.31.39Z" transform="translate(0 0)"/><path class="cls-1" d="M189,55.45a5.28,5.28,0,0,0-3,1A5.4,5.4,0,0,0,184.37,58a5.15,5.15,0,0,0-.74,1.87,5,5,0,0,0,0,2,5.54,5.54,0,0,0,2.2,3.28,4.9,4.9,0,0,0,2.85.91,5.5,5.5,0,0,0,1-.09,5.87,5.87,0,0,0,3.66-2.45,5.14,5.14,0,0,0,.75-1.87,4.91,4.91,0,0,0-.05-2,5.52,5.52,0,0,0-2.2-3.28,4.94,4.94,0,0,0-1.79-.79,4.88,4.88,0,0,0-1-.11ZM188.61,64a2.79,2.79,0,0,1-.65-.07,3,3,0,0,1-1.08-.5,3.31,3.31,0,0,1-1.28-1.91,3,3,0,0,1,.42-2.37,4.24,4.24,0,0,1,2.48-1.66,3.37,3.37,0,0,1,.62-.06,2.77,2.77,0,0,1,.65.08,3,3,0,0,1,1.08.5,3.29,3.29,0,0,1,.81.84,3.39,3.39,0,0,1,.47,1.08,2.94,2.94,0,0,1-.42,2.38A4.23,4.23,0,0,1,189.23,64a3.37,3.37,0,0,1-.62.06Z" transform="translate(0 0)"/><path class="cls-1" d="M190.2,70.86l.57-.29a1,1,0,0,0-.34.73Z" transform="translate(0 0)"/><polygon class="cls-1" points="197.9 65.87 188.86 70.41 191.77 76.2 193.45 75.35 191.43 71.32 198.78 67.63 197.9 65.87 197.9 65.87"/><path class="cls-1" d="M198.66,85.19a4.64,4.64,0,0,1-.53-.07h.67a4.94,4.94,0,0,0,1.66-.31,4.79,4.79,0,0,0,1.65-1l.11-.11L202,84a4.48,4.48,0,0,1-1.58.93,4.61,4.61,0,0,1-1.55.29Zm-3-6.88a4.19,4.19,0,0,1,2-1.31,4.63,4.63,0,0,1,1.56-.29h.13a4.94,4.94,0,0,0-1.66.31A4.79,4.79,0,0,0,196,78a4.37,4.37,0,0,0-.31.31Z" transform="translate(0 0)"/><path class="cls-1" d="M199.19,75.7a5.6,5.6,0,0,0-1.89.35,5.37,5.37,0,0,0-1.92,1.14,5.14,5.14,0,0,0-1.17,1.63,4.93,4.93,0,0,0-.43,1.91,5.54,5.54,0,0,0,1.33,3.71,4.93,4.93,0,0,0,1.55,1.21,5.15,5.15,0,0,0,1.94.52h.33a5.59,5.59,0,0,0,1.88-.35,5.44,5.44,0,0,0,1.93-1.15A5.11,5.11,0,0,0,203.92,83a4.92,4.92,0,0,0,.43-1.92,5.49,5.49,0,0,0-.32-2,5.41,5.41,0,0,0-1-1.73,4.91,4.91,0,0,0-1.54-1.21,5.11,5.11,0,0,0-1.95-.51Zm-.38,8.47h-.17a2.94,2.94,0,0,1-2.16-1.08,3.23,3.23,0,0,1-.77-2.15,2.79,2.79,0,0,1,1-2.16A3.79,3.79,0,0,1,198,78a3.93,3.93,0,0,1,1.32-.25h.17a3,3,0,0,1,2.16,1.08,3.29,3.29,0,0,1,.58,1,3.37,3.37,0,0,1,.19,1.16,2.94,2.94,0,0,1-1,2.2,3.79,3.79,0,0,1-1.31.76,3.93,3.93,0,0,1-1.32.25Z" transform="translate(0 0)"/><path class="cls-1" d="M200.17,97.88a1,1,0,0,0,.17-.44,3,3,0,0,0,.44.15l.41.08Zm2.19-.44.11-.12v.08Z" transform="translate(0 0)"/><path class="cls-1" d="M202.8,88.53a6.15,6.15,0,0,0-1.23.13,5.69,5.69,0,0,0-2.08.84,5,5,0,0,0-1.4,1.41,4.82,4.82,0,0,0-.7,1.78,5.2,5.2,0,0,0,0,2,4.4,4.4,0,0,0,.32,1,3.91,3.91,0,0,0,.47.77,2.89,2.89,0,0,0,.56.55,2.84,2.84,0,0,0,.58.33l-1.11.36.32,1.57,5.16-1-1-5-1.68.34.64,3.13h-.06a2.41,2.41,0,0,1-.58-.08,2.17,2.17,0,0,1-.73-.35,2.72,2.72,0,0,1-.66-.7,3.13,3.13,0,0,1-.44-1.13,3.4,3.4,0,0,1,0-1.24,2.86,2.86,0,0,1,.44-1.12,3.24,3.24,0,0,1,.92-.9,4,4,0,0,1,1.42-.56,4.56,4.56,0,0,1,.9-.1,3.17,3.17,0,0,1,.67.07,3.23,3.23,0,0,1,1.2.51,2.86,2.86,0,0,1,.81.88,3.44,3.44,0,0,1,.46,1,3.07,3.07,0,0,1,0,1.1,2.79,2.79,0,0,1-.29.88,2.45,2.45,0,0,1-.5.66,2.91,2.91,0,0,1-.61.44l1,1.71a4.54,4.54,0,0,0,1-.77,4.23,4.23,0,0,0,.79-1.12,4.57,4.57,0,0,0,.42-1.46,5.5,5.5,0,0,0-.09-1.79A5.36,5.36,0,0,0,207,90.8a5,5,0,0,0-1.36-1.41,5.09,5.09,0,0,0-2.88-.89Z" transform="translate(0 0)"/><path class="cls-1" d="M203.89,105.14a1,1,0,0,0-.36-.1,1,1,0,0,0,.33-.15l.44-.31a1.07,1.07,0,0,0,0,.77Z" transform="translate(0 0)"/><polygon class="cls-1" points="208.87 100.11 203.28 104.06 199.04 104.39 199.19 106.35 203.44 106.03 209.55 109.14 209.38 106.94 205.22 104.98 209.04 102.41 208.87 100.11 208.87 100.11"/><rect class="cls-1" x="57.62" y="123.05" width="0.48" height="8.97"/><polygon class="cls-1" points="59.09 122.05 56.62 122.05 56.62 133.02 59.09 133.02 59.09 122.05 59.09 122.05"/><path class="cls-1" d="M71.75,132l-4.23-6.74a1,1,0,0,0-1.85.53V132h-.43v-9h1.41l3.82,6.2a1,1,0,0,0,1.85-.53V123h.45v9Z" transform="translate(0 0)"/><polygon class="cls-1" points="73.78 122.05 71.33 122.05 71.33 128.72 67.22 122.05 64.25 122.05 64.25 133.02 66.67 133.02 66.67 125.81 71.19 133.02 73.78 133.02 73.78 122.05 73.78 122.05"/><path class="cls-1" d="M86.43,132l-4.23-6.74a1,1,0,0,0-1.85.53V132h-.43v-9h1.42l3.82,6.2a1,1,0,0,0,1.85-.53V123h.45v9Z" transform="translate(0 0)"/><polygon class="cls-1" points="88.47 122.05 86.02 122.05 86.02 128.72 81.9 122.05 78.93 122.05 78.93 133.02 81.36 133.02 81.36 125.81 85.88 133.02 88.47 133.02 88.47 122.05 88.47 122.05"/><path class="cls-1" d="M98.7,132.26a5,5,0,0,1-1.84-.33,4.41,4.41,0,0,1-1.49-.94,4.54,4.54,0,0,1-1-1.48,4.89,4.89,0,0,1-.37-2,5,5,0,0,1,.37-2,4.52,4.52,0,0,1,1-1.48,4.4,4.4,0,0,1,1.49-.94,5.24,5.24,0,0,1,3.66,0A4.46,4.46,0,0,1,102,124a4.56,4.56,0,0,1,1,1.49,5.34,5.34,0,0,1,0,3.92,4.56,4.56,0,0,1-1,1.48,4.45,4.45,0,0,1-1.48.94A5,5,0,0,1,98.7,132.26Zm0-9.05a4.39,4.39,0,0,0-1.47.26,4.11,4.11,0,0,0-1.35.8,3.92,3.92,0,0,0-1,1.39,4.67,4.67,0,0,0-.36,1.89,4.61,4.61,0,0,0,.37,1.9,4.1,4.1,0,0,0,2.37,2.17,4.44,4.44,0,0,0,2.92,0,3.84,3.84,0,0,0,1.36-.81,4.08,4.08,0,0,0,1-1.36,4.61,4.61,0,0,0,.37-1.9,4.67,4.67,0,0,0-.36-1.89,3.92,3.92,0,0,0-2.32-2.18,4.4,4.4,0,0,0-1.53-.28Z" transform="translate(0 0)"/><path class="cls-1" d="M98.7,121.82a6,6,0,0,0-2.2.4,5.39,5.39,0,0,0-3.06,3,6.32,6.32,0,0,0,0,4.71,5.5,5.5,0,0,0,1.24,1.8,5.42,5.42,0,0,0,1.82,1.15,6.18,6.18,0,0,0,4.39,0,5.46,5.46,0,0,0,1.81-1.15,5.52,5.52,0,0,0,1.24-1.8,6.32,6.32,0,0,0,0-4.71,5.41,5.41,0,0,0-3-3,6,6,0,0,0-2.19-.4Zm0,9a3.46,3.46,0,0,1-1.14-.19,2.93,2.93,0,0,1-1-.6,3,3,0,0,1-.74-1,3.6,3.6,0,0,1-.28-1.49A3.67,3.67,0,0,1,95.8,126a2.91,2.91,0,0,1,.74-1,3.09,3.09,0,0,1,1-.6,3.31,3.31,0,0,1,2.27,0,3,3,0,0,1,1.73,1.6,3.67,3.67,0,0,1,.28,1.49,3.6,3.6,0,0,1-.28,1.49,3.08,3.08,0,0,1-.73,1,2.86,2.86,0,0,1-1,.6,3.47,3.47,0,0,1-1.14.19Z" transform="translate(0 0)"/><path class="cls-1" d="M112.22,132l-3.29-9h.55l2.42,7a1,1,0,0,0,.95.68h0a1,1,0,0,0,.95-.68l2.38-7h.45l-3.28,9Z" transform="translate(0 0)"/><path class="cls-1" d="M118.06,122.05Zm0,0h-2.6l-2.62,7.72-2.65-7.72H107.5l4,11H114l4-11Z" transform="translate(0 0)"/><path class="cls-1" d="M129.26,132l-.55-1.56a1,1,0,0,0-.94-.67h-4.24a1,1,0,0,0-.94.67L122,132h-.42l3.38-9h1.45l3.34,9Zm-3.59-8.25a1,1,0,0,0-.94.67l-1.35,3.79a1,1,0,0,0,.94,1.33H127a1,1,0,0,0,.95-1.33l-1.31-3.79a1,1,0,0,0-.94-.67Z" transform="translate(0 0)"/><path class="cls-1" d="M127.13,122.05H124.3l-4.13,11h2.57l.79-2.23h4.24l.79,2.23h2.66Zm-2.8,6.52,1.35-3.79,1.32,3.79Z" transform="translate(0 0)"/><path class="cls-1" d="M137.81,132v-7.64a1,1,0,0,0-1-1h-2.37V123h7.21v.34h-2.39a1,1,0,0,0-1,1V132Z" transform="translate(0 0)"/><polygon class="cls-1" points="142.65 122.05 133.44 122.05 133.44 124.39 136.81 124.39 136.81 133.02 139.26 133.02 139.26 124.39 142.65 124.39 142.65 122.05 142.65 122.05"/><path class="cls-1" d="M151.75,132.26a5,5,0,0,1-1.84-.33,4.43,4.43,0,0,1-1.49-.94,4.53,4.53,0,0,1-1-1.48,4.89,4.89,0,0,1-.37-2,4.94,4.94,0,0,1,.38-2,4.52,4.52,0,0,1,1-1.48,4.43,4.43,0,0,1,1.49-.94,5.18,5.18,0,0,1,3.66,0,4.46,4.46,0,0,1,1.48.94,4.53,4.53,0,0,1,1,1.49,4.94,4.94,0,0,1,.38,2,4.89,4.89,0,0,1-.37,2,4.52,4.52,0,0,1-1,1.48,4.45,4.45,0,0,1-1.48.94A5,5,0,0,1,151.75,132.26Zm0-9.05a4.35,4.35,0,0,0-1.47.26,4.06,4.06,0,0,0-1.35.8,3.92,3.92,0,0,0-1,1.38,4.68,4.68,0,0,0-.36,1.89,4.6,4.6,0,0,0,.37,1.9,4,4,0,0,0,1,1.36,3.92,3.92,0,0,0,1.37.81,4.44,4.44,0,0,0,2.92,0,3.84,3.84,0,0,0,1.36-.81,4.06,4.06,0,0,0,1-1.36,4.6,4.6,0,0,0,.37-1.9,4.68,4.68,0,0,0-.36-1.89,4.05,4.05,0,0,0-2.34-2.18,4.39,4.39,0,0,0-1.51-.27Z" transform="translate(0 0)"/><path class="cls-1" d="M151.75,121.82a6,6,0,0,0-2.2.4,5.39,5.39,0,0,0-3.06,3,6.32,6.32,0,0,0,0,4.71,5.5,5.5,0,0,0,1.24,1.8,5.42,5.42,0,0,0,1.82,1.15,6.18,6.18,0,0,0,4.39,0,5.46,5.46,0,0,0,1.81-1.15,5.52,5.52,0,0,0,1.24-1.8,6.32,6.32,0,0,0,0-4.71,5.41,5.41,0,0,0-3-3,6,6,0,0,0-2.19-.4Zm0,9a3.46,3.46,0,0,1-1.14-.19,2.93,2.93,0,0,1-1-.6,3,3,0,0,1-.74-1,3.6,3.6,0,0,1-.28-1.49,3.67,3.67,0,0,1,.28-1.49,2.91,2.91,0,0,1,.74-1,3.09,3.09,0,0,1,1-.6,3.31,3.31,0,0,1,2.27,0,3,3,0,0,1,1.73,1.6,3.67,3.67,0,0,1,.28,1.49,3.6,3.6,0,0,1-.28,1.49,3.08,3.08,0,0,1-.73,1,2.86,2.86,0,0,1-1,.6,3.47,3.47,0,0,1-1.14.19Z" transform="translate(0 0)"/><path class="cls-1" d="M167.88,132l-1.69-3.52a1,1,0,0,0-.9-.57h-.87a1,1,0,0,0-1,1h0V132H163v-9h3.35a2.92,2.92,0,0,1,1.09.19,2.33,2.33,0,0,1,.78.5,2.24,2.24,0,0,1,.5.76,2.58,2.58,0,0,1,.18,1,2.26,2.26,0,0,1-.39,1.35,2.16,2.16,0,0,1-1.11.8,1,1,0,0,0-.61,1.28l0,.11,1.5,3Zm-3.46-8.85a1,1,0,0,0-1,1v2.66a1,1,0,0,0,1,1h1.44a2.59,2.59,0,0,0,1.84-.64,2.38,2.38,0,0,0,0-3.37l0,0a2.64,2.64,0,0,0-1.83-.62Z" transform="translate(0 0)"/><path class="cls-1" d="M166.33,122.05H162v11h2.45V129h.87l2,4.09H170l-2.23-4.44a3.16,3.16,0,0,0,1.59-1.17,3.26,3.26,0,0,0,.57-1.93,3.57,3.57,0,0,0-.26-1.35,3.26,3.26,0,0,0-.72-1.09,3.3,3.3,0,0,0-1.12-.73,3.92,3.92,0,0,0-1.46-.26Zm-1.9,4.78v-2.66h1.44a1.67,1.67,0,0,1,1.15.36,1.38,1.38,0,0,1,0,1.93,1.62,1.62,0,0,1-1.15.37Z" transform="translate(0 0)"/><path class="cls-1" d="M87.4,149l-.55-1.56a1,1,0,0,0-.94-.67H81.66a1,1,0,0,0-.94.67L80.17,149h-.42l3.38-9h1.45l3.34,9Zm-3.59-8.25a1,1,0,0,0-.94.67l-1.35,3.79a1,1,0,0,0,.94,1.33h2.66a1,1,0,0,0,.94-1.33l-1.32-3.79a1,1,0,0,0-.94-.67Z" transform="translate(0 0)"/><path class="cls-1" d="M85.27,139H82.44l-4.13,11h2.57l.79-2.23H85.9l.79,2.23h2.66l-4.09-11Zm-2.8,6.52,1.35-3.79,1.32,3.79Z" transform="translate(0 0)"/><path class="cls-1" d="M102.81,149l-2.11-6.58a1,1,0,0,0-1-.69h0a1,1,0,0,0-1,.69l-2,6.58H95.58l-2.44-9h.52l1.62,6.28a1,1,0,0,0,.94.75h0a1,1,0,0,0,1-.69l2-6.34h1.05l2.05,6.35a1,1,0,0,0,1,.69h0a1,1,0,0,0,.94-.75l1.59-6.29h.42l-2.44,9Z" transform="translate(0 0)"/><path class="cls-1" d="M107.59,139Zm0,0h-2.51l-1.78,7-2.3-7H98.52l-2.28,7-1.81-7h-2.6l3,11H97.4l2.35-7.27,2.34,7.27h2.52l3-11Z" transform="translate(0 0)"/><path class="cls-1" d="M119.14,149l-.55-1.56a1,1,0,0,0-.94-.67h-4.24a1,1,0,0,0-.94.67l-.55,1.56h-.42l3.38-9h1.45l3.34,9Zm-3.59-8.25a1,1,0,0,0-.94.67l-1.35,3.79a1,1,0,0,0,.94,1.33h2.66a1,1,0,0,0,.94-1.33l-1.32-3.79a1,1,0,0,0-.94-.67Z" transform="translate(0 0)"/><path class="cls-1" d="M117,139h-2.83L110,150h2.57l.79-2.23h4.24l.79,2.23h2.66Zm-2.8,6.52,1.35-3.79,1.32,3.79Z" transform="translate(0 0)"/><path class="cls-1" d="M131.14,149l-1.69-3.52a1,1,0,0,0-.9-.57h-.87a1,1,0,0,0-1,1V149h-.45v-9h3.35a2.93,2.93,0,0,1,1.09.19,2.29,2.29,0,0,1,.79.51,2.25,2.25,0,0,1,.5.76,2.58,2.58,0,0,1,.18,1,2.27,2.27,0,0,1-.39,1.35,2.17,2.17,0,0,1-1.11.8,1,1,0,0,0-.61,1.28l0,.11,1.5,3Zm-3.46-8.85a1,1,0,0,0-1,1v2.66a1,1,0,0,0,1,1h1.44a2.59,2.59,0,0,0,1.84-.64,2.38,2.38,0,0,0,0-3.37l0,0a2.64,2.64,0,0,0-1.82-.61Z" transform="translate(0 0)"/><path class="cls-1" d="M129.58,139h-4.35v11h2.45v-4.09h.87l2,4.09h2.69L131,145.54a3.16,3.16,0,0,0,1.59-1.17,3.26,3.26,0,0,0,.57-1.93,3.57,3.57,0,0,0-.26-1.35,3.26,3.26,0,0,0-.72-1.09,3.3,3.3,0,0,0-1.12-.73,3.92,3.92,0,0,0-1.46-.26Zm-1.9,4.78v-2.66h1.44a1.67,1.67,0,0,1,1.15.36,1.38,1.38,0,0,1,0,1.93,1.62,1.62,0,0,1-1.15.37Z" transform="translate(0 0)"/><path class="cls-1" d="M138.73,149v-9h3a5.43,5.43,0,0,1,1.9.32,4,4,0,0,1,1.39.87,3.86,3.86,0,0,1,.89,1.38,5.38,5.38,0,0,1,.33,1.93,5.31,5.31,0,0,1-.33,1.92,3.85,3.85,0,0,1-.89,1.37,3.92,3.92,0,0,1-1.4.87,5.48,5.48,0,0,1-1.91.32Zm1.45-8.67a1,1,0,0,0-1,1v6.36a1,1,0,0,0,1,1h1.42a4.79,4.79,0,0,0,1.51-.24,3.58,3.58,0,0,0,2.25-2.14,5.36,5.36,0,0,0,0-3.58,3.77,3.77,0,0,0-.9-1.36,3.61,3.61,0,0,0-1.34-.8,4.8,4.8,0,0,0-1.51-.24Z" transform="translate(0 0)"/><path class="cls-1" d="M141.71,139h-4v11h4a6.45,6.45,0,0,0,2.26-.38,4.9,4.9,0,0,0,1.75-1.09,4.82,4.82,0,0,0,1.12-1.73,6.25,6.25,0,0,0,.39-2.28,6.33,6.33,0,0,0-.39-2.29,4.82,4.82,0,0,0-1.12-1.73,4.94,4.94,0,0,0-1.74-1.09,6.38,6.38,0,0,0-2.25-.38Zm-1.53,8.67v-6.36h1.42a3.77,3.77,0,0,1,1.19.19,2.59,2.59,0,0,1,1,.58,2.74,2.74,0,0,1,.66,1,4.36,4.36,0,0,1,0,2.85,2.67,2.67,0,0,1-.66,1,2.64,2.64,0,0,1-1,.57,3.75,3.75,0,0,1-1.19.19Z" transform="translate(0 0)"/><path class="cls-1" d="M164.43,114.61v-13.5a9.1,9.1,0,0,0-.14-1.78,4.45,4.45,0,0,0-4.66-3.83h-.14A7.8,7.8,0,0,0,154,98a2,2,0,0,0-.51,1.52v15h-3.7V97.3a2.72,2.72,0,0,0-2.22-3.08l-.28-.1v-.57h4.81c.61,0,.61,0,.75.61l.3,1.36a1,1,0,0,0,1.63.54l.21-.18.39-.34a8.23,8.23,0,0,1,5.74-2.35,9.42,9.42,0,0,1,1,.06A6.24,6.24,0,0,1,167.81,99a4.54,4.54,0,0,0,.12.53v15.13Z" transform="translate(0 0)"/><path class="cls-1" d="M161.14,94.18a8.35,8.35,0,0,1,.9.05,5.24,5.24,0,0,1,4.81,4.87,5,5,0,0,0,.13.57V113.6h-1.55V101.09a10,10,0,0,0-.16-2,5.45,5.45,0,0,0-5.64-4.63h-.7a7,7,0,0,1,2.22-.35h0m-9.21.36.15.7.11.49a2,2,0,0,0,1.29,1.46l-.16.15a3,3,0,0,0-.8,2.23v14h-1.7V97.3a4,4,0,0,0-.82-2.76h1.94m9.21-2.36a9.26,9.26,0,0,0-6.42,2.61l-.58.5c-.11-.52-.2-.95-.3-1.37-.24-1.06-.65-1.38-1.72-1.38h-5.81v1.22c0,1,.07,1.07,1,1.38,1.27.43,1.54.81,1.54,2.14V115.5h5.7v-16a1.26,1.26,0,0,1,.21-.82,6.87,6.87,0,0,1,4.77-2.25h.12a3.44,3.44,0,0,1,3.68,3,8.1,8.1,0,0,1,.12,1.58v14.5H169V99.41a6,6,0,0,1-.15-.61,7.22,7.22,0,0,0-6.58-6.56,10.31,10.31,0,0,0-1.12-.06Z" transform="translate(0 0)"/><path class="cls-1" d="M57.71,114.52V97.37a2.84,2.84,0,0,0-2.12-3.12,2.62,2.62,0,0,1-.4-.23v-.5h6.13v21Z" transform="translate(0 0)"/><path class="cls-1" d="M60.32,94.52v19H58.71V97.37a4,4,0,0,0-.88-2.85h2.49m2-2H54.19v2a7.78,7.78,0,0,0,1,.61c1.22.51,1.5.88,1.5,2.2v18.15H62.3v-23Z" transform="translate(0 0)"/><path class="cls-1" d="M119.16,114.53V100.41a5.61,5.61,0,0,0-.06-.85,4.39,4.39,0,0,0-4.6-4.07h-.15a4.87,4.87,0,0,0-4.87,4.44,14.37,14.37,0,0,0-.09,1.64v12.94H105.8V101.44a12.39,12.39,0,0,0-.07-1.61c-.22-2.71-1.88-4.33-4.44-4.33a6.63,6.63,0,0,0-1.48.17,6.4,6.4,0,0,0-3.36,2.17,2.16,2.16,0,0,0-.45,1.5v15.19H92.57v-17a3,3,0,0,0-1.91-3l-.2-.08-.26-.12a.64.64,0,0,1-.12-.15v-.67h4.56c.56,0,.57,0,.67.53l.29,1.32a1,1,0,0,0,1.66.51l.35-.33.67-.62a6.48,6.48,0,0,1,4.46-1.77h.36a4.43,4.43,0,0,1,3.79,2.38c.15.25.27.5.4.77l.22.44a1,1,0,0,0,.7.52h.19a1,1,0,0,0,.66-.25,1.2,1.2,0,0,0,.34-.38,6.75,6.75,0,0,1,6.42-3.5h.31a6,6,0,0,1,5.55,3.08,7.49,7.49,0,0,1,1,3.61v14.65Z" transform="translate(0 0)"/><path class="cls-1" d="M91.09,92.58h0m11.67,1.6h.31a3.41,3.41,0,0,1,3,1.89c.12.2.24.45.37.71l.22.45a2,2,0,0,0,2.18,1,6.35,6.35,0,0,0-.38,1.55,15.33,15.33,0,0,0-.1,1.75q0,5.07,0,10.14v1.8H106.8V101.4a12.75,12.75,0,0,0-.08-1.69c-.26-3.24-2.35-5.25-5.44-5.25h-.43a5.34,5.34,0,0,1,1.91-.34h0m13.08,0h.29a5,5,0,0,1,4.7,2.56,6.49,6.49,0,0,1,.84,3.13v13.64h-1.54V100.33a6.62,6.62,0,0,0-.08-1,5.38,5.38,0,0,0-5.59-4.91h-.17a6.45,6.45,0,0,0-1.12.12,7.58,7.58,0,0,1,2.67-.43m-23.31.35h1.86l.14.61.1.45A2,2,0,0,0,95.83,97l-.14.16A3.14,3.14,0,0,0,95,99.3q0,6.38,0,12.76v1.43H93.57v-16a4,4,0,0,0-1.14-3h.09m10.22-2.36a7.51,7.51,0,0,0-5.13,2,10.48,10.48,0,0,0-1,1l-.29-1.32a1.42,1.42,0,0,0-1.51-1.33l-.14,0H89.09a17.65,17.65,0,0,0,0,1.84,1.26,1.26,0,0,0,.43.7,2.61,2.61,0,0,0,.74.37,2,2,0,0,1,1.3,2v18H97V99.24a1.34,1.34,0,0,1,.2-.82,5.45,5.45,0,0,1,2.8-1.76,5.61,5.61,0,0,1,1.26-.15c1.64,0,3.24.82,3.45,3.41,0,.51.07,1,.07,1.53v14.07h5.54V101.59a13.46,13.46,0,0,1,.08-1.53,3.88,3.88,0,0,1,3.91-3.56h.13A3.42,3.42,0,0,1,118,99.72h0a4.61,4.61,0,0,1,.05.7v15.12h5.54V99.88a8.51,8.51,0,0,0-1.09-4.09,7,7,0,0,0-6.4-3.59h-.34a7.72,7.72,0,0,0-7.29,4l-.13.12c-.23-.44-.42-.86-.65-1.26a5.41,5.41,0,0,0-4.6-2.87Z" transform="translate(0 0)"/><path class="cls-1" d="M68.5,114.52V97.2a2.64,2.64,0,0,0-2-2.93l-.5-.16v-.56h4.91c.48,0,.52,0,.63.52l.31,1.46a1,1,0,0,0,1.65.54l.28-.25.49-.44a8.29,8.29,0,0,1,5.48-2.22,8.9,8.9,0,0,1,2.81.48,5.7,5.7,0,0,1,3.78,4.48,11.78,11.78,0,0,1,.34,2.67v13.74H83.14V100.91a7.81,7.81,0,0,0-.45-2.57,4.31,4.31,0,0,0-4.34-2.82H78A8,8,0,0,0,72.72,98a2,2,0,0,0-.52,1.46v15Z" transform="translate(0 0)"/><path class="cls-1" d="M79.76,94.15h0a7.91,7.91,0,0,1,2.49.43,4.71,4.71,0,0,1,3.12,3.77,10.68,10.68,0,0,1,.31,2.42v12.75H84.14V100.89A8.8,8.8,0,0,0,83.61,98a5.33,5.33,0,0,0-5.28-3.48h-.75a6.45,6.45,0,0,1,2.21-.39m-9.54.38h.42l.14.67.11.53a2,2,0,0,0,1.27,1.46l-.13.13a3,3,0,0,0-.82,2.18v14h-1.7V97.2a4,4,0,0,0-.8-2.65h1.52m9.54-2.38a9.24,9.24,0,0,0-6.13,2.46l-.78.7-.31-1.47a1.42,1.42,0,0,0-1.52-1.31H65V93.7c0,1.13,0,1.13,1.1,1.52s1.38.79,1.38,2v18.32h5.67v-16a1.14,1.14,0,0,1,.21-.75A7.07,7.07,0,0,1,78,96.51h.28a3.32,3.32,0,0,1,3.4,2.16,6.82,6.82,0,0,1,.39,2.24v14.62h5.53V100.78a12.65,12.65,0,0,0-.37-2.9,6.73,6.73,0,0,0-4.43-5.19,9.86,9.86,0,0,0-3.13-.53Z" transform="translate(0 0)"/><path class="cls-1" d="M132.93,114.89a10.11,10.11,0,0,1-2.67-.38,4.43,4.43,0,0,1-3.15-3.37,4.84,4.84,0,0,1,1.21-4.68,9.77,9.77,0,0,1,4.71-2.33c1.34-.27,2.76-.43,4.12-.58l1.59-.18h.87a1,1,0,0,0,1-.9c.41-4-.64-6.07-3.62-7.24a7,7,0,0,0-2.58-.34H134a1.9,1.9,0,0,0-2,1.85q0,.08,0,.15a2,2,0,0,1-2,1.84h-.11a2,2,0,0,1-1.89-2,1.8,1.8,0,0,1,.7-1.42,10.59,10.59,0,0,1,5.11-2,17,17,0,0,1,2.6-.23,9.83,9.83,0,0,1,1.82.16,6.79,6.79,0,0,1,5.71,6,14.94,14.94,0,0,1,.12,1.84v13.3H142a2.4,2.4,0,0,1-.33-.48,4.18,4.18,0,0,1-.29-.87,2.46,2.46,0,0,0-.15-.56,1,1,0,0,0-1.57-.5l-.54.43c-.36.28-.71.56-1.06.82a8.62,8.62,0,0,1-5.09,1.69Zm6.71-10.16h-1a16.37,16.37,0,0,0-2,.14,10.88,10.88,0,0,0-4.72,1.42,3.56,3.56,0,0,0-1.61,3.89,3.26,3.26,0,0,0,2.87,2.69,8,8,0,0,0,1.37.12,7.77,7.77,0,0,0,5.62-2.54,1.72,1.72,0,0,0,.49-1.13v-3.63a1,1,0,0,0-1-1Z" transform="translate(0 0)"/><path class="cls-1" d="M136.58,94.06a8.7,8.7,0,0,1,1.52.14,5.82,5.82,0,0,1,4.9,5.19,14,14,0,0,1,.11,1.72v12.31h-.61a4.27,4.27,0,0,1-.19-.63c-.05-.2-.11-.4-.17-.61a2,2,0,0,0-1-1.21,2.7,2.7,0,0,0,.57-1.58v-3.65a2,2,0,0,0-1-1.71,2,2,0,0,0,.87-1.45c.32-3.14.07-6.57-4.25-8.28a5.1,5.1,0,0,0-.78-.24m-4.8.74a3.25,3.25,0,0,0-.77,2,1,1,0,0,1-1,.89h0a1,1,0,0,1-1-1,.82.82,0,0,1,.32-.69,7.91,7.91,0,0,1,2.4-1.26m-.94,11.13a4.58,4.58,0,0,0-1.47,4.49,4.24,4.24,0,0,0,3.61,3.48h0a9.12,9.12,0,0,1-2.41-.34,3.45,3.45,0,0,1-2.44-2.64,3.89,3.89,0,0,1,.91-3.71,8.27,8.27,0,0,1,1.85-1.27M136.44,92a18.15,18.15,0,0,0-2.75.24,11.64,11.64,0,0,0-5.57,2.18A2.81,2.81,0,0,0,127,96.58a3,3,0,0,0,2.82,3.09H130a3,3,0,0,0,3-2.8c0-.64.31-1,.91-1h0a7.84,7.84,0,0,1,2.68.27c2.55,1,3.36,2.67,3,6.21h-1c-1.93.24-3.89.39-5.79.78a10.73,10.73,0,0,0-5.19,2.57c-2.85,2.6-2.11,8.53,2.35,9.75a11.07,11.07,0,0,0,2.94.42,9.57,9.57,0,0,0,5.67-1.87c.55-.39,1.07-.82,1.64-1.27a9.13,9.13,0,0,0,.52,1.61c.21.4.59.95.94,1a13.2,13.2,0,0,0,1.5.07h1.93V101.12a16,16,0,0,0-.13-2,7.81,7.81,0,0,0-6.52-6.9,10.86,10.86,0,0,0-2-.18Zm-1.88,20a7,7,0,0,1-1.2-.11,2.25,2.25,0,0,1-2.05-1.89,2.55,2.55,0,0,1,1.16-2.87,9.94,9.94,0,0,1,4.3-1.27c.92-.11,1.86-.12,2.9-.18v3.62a.71.71,0,0,1-.2.44,6.78,6.78,0,0,1-4.91,2.25Z" transform="translate(0 0)"/><circle class="cls-1" cx="59.42" cy="85.83" r="2.57"/><path class="cls-1" d="M59.42,84.26a1.57,1.57,0,1,1-1.57,1.57h0a1.57,1.57,0,0,1,1.57-1.57m0-2A3.57,3.57,0,1,0,63,85.83a3.57,3.57,0,0,0-3.58-3.57Z" transform="translate(0 0)"/><path class="cls-1" d="M105.54,74.91V73.76h1.22a1.22,1.22,0,0,0,1.24-1.2V54.26l8.19,3.54V72.58a1.22,1.22,0,0,0,1.22,1.22h1.2v1.11Z" transform="translate(0 0)"/><path class="cls-1" d="M109,55.78l6.19,2.68V72.58a2.2,2.2,0,0,0,.44,1.33H108.5a2.21,2.21,0,0,0,.48-1.37V55.78m-2-3v19.8a.22.22,0,0,1-.22.22h-2.21V76h15V72.81h-2.2a.22.22,0,0,1-.22-.22h0V57.26a.18.18,0,0,0-.11-.16L107,52.74Z" transform="translate(0 0)"/><rect class="cls-1" x="107.91" y="166.93" width="11.69" height="1.5"/><polygon class="cls-1" points="119.6 166.93 107.91 166.93 107.91 168.43 119.6 168.43 119.6 166.93 119.6 166.93"/></svg>